<?xml version="1.0" standalone="no"?>
<!DOCTYPE svg PUBLIC "-//W3C//DTD SVG 20010904//EN"
 "http://www.w3.org/TR/2001/REC-SVG-20010904/DTD/svg10.dtd">
<svg version="1.0" xmlns="http://www.w3.org/2000/svg"
 width="1280.000000pt" height="1060.000000pt" viewBox="0 0 1280.000000 1060.000000"
 preserveAspectRatio="xMidYMid meet">
<metadata>
Created by potrace 1.15, written by Peter Selinger 2001-2017
</metadata>
<g transform="translate(0.000000,1060.000000) scale(0.100000,-0.100000)"
fill="#000000" stroke="none">
<path d="M10295 10475 c-180 -22 -290 -50 -555 -140 -91 -31 -239 -76 -330
-100 -175 -47 -446 -130 -620 -190 -507 -176 -715 -227 -920 -228 -206 -1
-400 66 -446 154 -20 39 -18 43 22 58 91 33 -29 48 -125 15 -61 -21 -68 -28
-136 -142 -52 -88 -67 -105 -153 -172 -131 -103 -242 -199 -406 -354 -77 -72
-144 -135 -150 -141 -143 -128 -207 -188 -240 -225 -172 -191 -185 -197 -264
-123 l-52 49 6 76 c7 76 7 77 -25 108 -17 17 -31 40 -31 51 0 10 19 37 42 59
23 21 39 42 35 46 -15 15 -87 -18 -135 -61 -27 -25 -60 -66 -72 -91 -24 -53
-20 -73 31 -144 16 -21 39 -66 53 -98 13 -33 42 -87 66 -121 75 -112 83 -154
54 -285 -30 -129 -62 -260 -83 -341 -31 -113 -87 -376 -116 -540 -32 -183 -67
-318 -112 -435 -20 -52 -36 -102 -35 -111 0 -9 -10 -27 -22 -38 l-23 -22 -31
63 c-16 35 -33 74 -37 87 -17 54 -53 96 -146 167 -109 84 -127 107 -278 349
-200 322 -240 381 -349 528 -62 84 -140 179 -172 212 -83 85 -196 239 -231
315 -16 36 -33 71 -38 79 -7 14 -51 32 -206 87 -68 24 -198 58 -320 84 -312
66 -428 123 -586 288 -88 90 -171 199 -188 245 -8 20 -17 27 -38 27 -16 0 -93
12 -173 25 -105 19 -208 28 -375 35 -383 15 -467 43 -808 262 -178 115 -338
201 -350 189 -16 -16 47 -169 118 -288 91 -153 145 -262 145 -294 0 -75 -111
-79 -242 -8 -24 12 -28 11 -28 -5 0 -26 41 -65 118 -110 42 -25 120 -82 173
-128 53 -46 205 -164 338 -263 239 -178 241 -180 237 -213 -6 -44 18 -121 49
-155 14 -15 54 -41 88 -58 34 -18 93 -51 132 -74 38 -23 102 -59 140 -80 92
-50 122 -75 322 -267 278 -268 410 -407 501 -527 48 -62 130 -168 182 -235
122 -154 174 -228 282 -396 121 -188 178 -285 178 -301 0 -8 -16 -45 -35 -81
-20 -37 -55 -126 -79 -199 -43 -131 -44 -132 -82 -145 -65 -23 -64 -24 -64 81
0 56 -4 95 -10 95 -18 0 -69 -81 -90 -145 -27 -82 -53 -93 -79 -32 -10 23 -24
66 -30 95 -7 28 -17 52 -23 52 -18 0 -41 -76 -46 -158 -3 -45 -9 -85 -13 -88
-5 -3 -17 0 -27 5 -17 9 -18 17 -10 73 4 35 10 69 13 76 2 6 -1 12 -8 12 -19
0 -80 -68 -112 -122 -20 -35 -33 -48 -50 -48 -20 0 -24 7 -34 68 -19 105 -21
112 -32 112 -16 0 -57 -99 -65 -156 -6 -49 -25 -76 -39 -54 -4 6 -14 10 -24
10 -20 0 -35 47 -25 74 3 8 1 17 -5 20 -11 7 -49 -38 -57 -70 -6 -24 -30 -39
-39 -24 -7 12 146 166 174 175 12 3 21 11 21 16 0 14 -122 -36 -198 -81 -72
-42 -127 -55 -101 -23 8 9 30 23 49 32 l35 16 -42 3 c-28 2 -55 -4 -82 -18
-32 -16 -46 -18 -61 -10 -11 6 -20 14 -20 18 0 11 32 55 50 69 13 11 12 12
-10 13 -13 0 -38 -13 -55 -29 -29 -28 -31 -28 -65 -14 l-35 15 33 29 c18 16
39 29 47 29 8 0 15 5 15 10 0 18 -68 11 -115 -12 l-45 -22 -27 26 c-26 26 -26
27 -8 55 10 15 26 33 34 40 14 11 13 12 -6 13 -12 0 -38 -14 -58 -31 -34 -30
-36 -31 -61 -14 -24 15 -25 21 -19 63 8 52 25 92 49 111 22 18 20 31 -3 31
-27 0 -78 -46 -101 -91 -25 -48 -35 -54 -70 -39 -24 10 -30 20 -36 57 -9 60 1
143 20 182 13 25 14 31 3 31 -37 0 -81 -81 -92 -172 -4 -32 -8 -58 -10 -58 -1
0 -23 9 -48 20 -40 18 -48 27 -66 76 -12 30 -21 73 -21 94 0 22 -4 40 -10 40
-16 0 -23 -47 -18 -114 l5 -63 -46 5 c-25 2 -54 9 -63 13 -22 12 -32 67 -25
130 4 29 2 49 -4 49 -18 0 -47 -62 -54 -116 l-7 -55 -36 7 c-20 4 -40 9 -44
11 -13 7 -9 42 7 73 l15 30 -24 -12 c-14 -6 -34 -30 -45 -54 -16 -34 -24 -41
-41 -37 -23 6 -28 50 -9 85 6 11 9 22 6 24 -10 10 -66 -49 -77 -80 -10 -30
-16 -34 -52 -38 -45 -4 -52 4 -52 60 0 45 -18 35 -34 -19 -8 -24 -15 -50 -18
-56 -2 -8 -20 -13 -44 -13 -23 0 -50 -5 -61 -10 -18 -10 -19 -6 -19 102 0 157
13 225 67 341 65 141 69 202 26 342 -11 36 -30 64 -67 100 -38 37 -60 70 -80
120 -15 38 -25 77 -23 87 3 10 2 18 -3 18 -27 0 -37 -207 -11 -233 6 -6 11
-23 11 -38 0 -15 5 -31 10 -34 6 -4 8 -16 4 -27 -3 -11 -1 -31 6 -43 11 -20 9
-28 -14 -61 -14 -21 -26 -48 -26 -60 0 -12 -16 -34 -40 -53 -29 -23 -40 -39
-40 -59 0 -19 -10 -35 -35 -55 -29 -23 -34 -32 -29 -56 5 -23 1 -34 -21 -53
-22 -19 -25 -28 -20 -55 3 -18 2 -33 -3 -33 -6 0 -17 -11 -26 -25 -13 -20 -14
-30 -5 -46 9 -18 7 -25 -15 -48 -23 -24 -25 -31 -16 -56 10 -25 7 -32 -19 -59
-25 -26 -30 -39 -28 -74 1 -38 -3 -47 -36 -78 -20 -19 -37 -42 -37 -50 0 -8
-4 -14 -9 -14 -11 0 -17 16 -27 75 -6 36 -8 37 -16 16 -4 -13 -10 -53 -13 -90
-17 -215 -16 -214 -55 -121 -12 30 -40 84 -61 119 -38 63 -45 82 -69 174 -18
69 -104 214 -164 275 -47 49 -161 120 -173 108 -3 -3 8 -22 25 -43 29 -37 64
-105 77 -150 3 -13 11 -23 16 -23 5 0 9 -9 9 -19 0 -11 3 -22 8 -24 6 -5 6
-20 -2 -124 -1 -21 -8 -48 -14 -59 -9 -17 -9 -24 3 -34 13 -10 12 -16 -1 -42
-14 -27 -14 -32 -1 -46 12 -11 13 -21 6 -40 -7 -18 -6 -29 5 -41 8 -9 12 -27
9 -42 -3 -16 1 -32 12 -42 12 -12 15 -26 10 -46 -4 -19 -1 -34 9 -44 14 -14
14 -19 1 -51 -18 -42 -19 -73 -4 -78 7 -2 1 -19 -15 -42 -33 -48 -33 -63 -1
-78 22 -10 25 -16 19 -42 -3 -17 -13 -43 -20 -58 -14 -26 -13 -28 16 -43 20
-10 28 -20 23 -28 -47 -76 -73 -123 -73 -133 0 -7 12 -26 26 -43 22 -27 25
-37 19 -74 -9 -61 -7 -124 6 -164 6 -19 9 -37 6 -40 -12 -11 -58 78 -79 154
-13 46 -26 83 -30 83 -5 0 -8 -47 -8 -105 0 -89 4 -114 25 -168 14 -35 41 -79
60 -97 19 -18 32 -36 30 -40 -2 -4 14 -24 35 -45 22 -22 40 -45 40 -53 0 -8
15 -32 34 -53 38 -41 52 -90 42 -142 -4 -17 -10 -64 -13 -104 l-5 -72 48 -3
49 -3 32 -75 c31 -74 32 -75 88 -95 48 -17 57 -18 65 -5 7 11 10 8 15 -12 4
-15 4 -31 1 -37 -4 -6 11 -29 33 -53 49 -51 98 -141 117 -211 19 -71 6 -84
-46 -47 -15 11 -30 17 -33 14 -8 -8 39 -135 79 -216 19 -37 34 -70 34 -73 0
-16 -28 2 -79 50 -32 30 -61 55 -64 55 -14 0 -6 -30 30 -122 94 -239 234 -366
511 -462 107 -37 152 -44 152 -25 0 7 -28 39 -63 73 -82 80 -94 109 -77 182 7
30 19 59 27 66 10 8 10 13 3 18 -11 7 -4 40 9 40 8 0 41 -58 41 -73 0 -7 7
-21 15 -31 13 -17 18 -18 40 -6 21 11 32 10 79 -8 30 -11 56 -18 59 -15 3 2
37 -27 76 -65 75 -73 112 -138 146 -255 31 -107 49 -47 20 66 -21 79 -69 175
-121 238 -24 30 -44 60 -44 67 0 7 -9 31 -20 53 -12 22 -18 44 -15 49 3 5 22
14 43 20 20 6 47 16 60 23 56 27 258 -51 340 -131 77 -76 66 -26 -14 66 -52
60 -170 141 -234 162 -25 8 -51 20 -57 26 -7 7 -28 22 -46 33 -52 32 -95 130
-104 234 -25 293 12 490 126 682 32 55 77 118 98 140 53 56 94 111 131 175 36
64 63 140 51 140 -5 0 -9 -5 -9 -11 0 -16 -112 -130 -165 -168 -25 -18 -45
-30 -45 -26 0 9 50 86 81 126 16 20 29 49 29 64 0 20 73 159 97 185 10 11 77
-79 115 -155 22 -44 62 -114 88 -155 26 -41 65 -107 87 -145 57 -98 103 -151
216 -250 125 -108 299 -225 401 -269 85 -37 89 -40 191 -146 39 -40 88 -86
109 -102 49 -36 68 -63 144 -215 83 -167 185 -293 249 -309 35 -9 28 -21 -24
-39 -89 -30 -349 -215 -541 -383 -149 -131 -393 -290 -513 -335 -36 -14 -77
-31 -90 -38 -13 -6 -29 -15 -35 -18 -6 -3 -38 -25 -70 -48 -172 -123 -245
-180 -299 -232 -62 -59 -160 -111 -209 -111 -15 0 -35 -4 -44 -9 -9 -5 -72
-16 -138 -25 -67 -8 -133 -21 -147 -27 -41 -19 -67 -63 -73 -126 -3 -32 -10
-71 -15 -87 -13 -40 -11 -133 2 -142 7 -4 8 -22 4 -53 -17 -107 5 -184 60
-209 28 -13 65 -15 89 -6 23 9 20 24 -4 24 -32 0 -70 44 -70 80 0 39 16 70 36
70 29 0 84 83 84 128 0 10 -9 28 -20 40 -26 27 -25 29 9 37 22 5 35 1 56 -19
41 -38 109 -36 160 4 21 17 42 30 46 30 12 0 -6 -44 -59 -140 -52 -95 -73
-152 -66 -183 3 -12 5 -55 5 -96 0 -70 1 -75 32 -103 18 -17 41 -48 52 -71 11
-22 27 -45 36 -50 28 -17 64 0 88 43 27 49 21 63 -14 30 -18 -17 -25 -19 -26
-9 -2 27 3 44 20 64 45 52 46 111 1 135 -34 18 -16 86 72 268 47 99 66 105 85
27 15 -58 4 -144 -27 -210 -63 -138 -81 -202 -69 -253 4 -20 17 -44 27 -53 11
-8 23 -25 26 -37 10 -31 42 -28 54 6 5 15 24 42 41 59 17 18 31 38 32 45 0 7
2 38 4 68 3 60 29 169 51 211 7 15 19 44 27 66 12 36 126 185 234 306 40 46
58 75 140 224 34 62 35 63 102 83 38 11 73 20 80 20 27 0 -6 -168 -54 -277
-44 -98 -29 -109 44 -33 44 46 79 107 165 292 22 46 32 58 57 63 19 4 35 2 42
-5 20 -19 12 -259 -12 -377 -33 -160 -28 -181 28 -118 62 71 113 201 161 410
38 167 38 165 78 182 33 14 37 13 48 -2 17 -24 28 -151 19 -240 -8 -84 2 -96
35 -43 25 42 48 143 56 251 l7 85 68 19 67 20 6 -21 c3 -11 6 -39 6 -60 0 -51
9 -41 30 36 l17 62 84 27 c58 18 86 24 91 16 4 -7 13 -3 25 12 16 20 27 23 91
22 80 -1 172 24 220 58 17 11 40 21 52 21 11 0 35 7 51 16 17 8 32 14 34 12 1
-2 13 -23 25 -48 35 -69 207 -257 282 -307 21 -14 38 -29 38 -33 0 -4 -18 -47
-41 -96 -77 -167 -86 -189 -107 -254 -12 -36 -39 -130 -61 -210 -68 -246 -130
-430 -182 -533 -27 -54 -49 -105 -49 -113 0 -7 -23 -50 -51 -94 -92 -145 -127
-261 -144 -485 -4 -60 -4 -60 -77 -129 -40 -37 -93 -77 -118 -89 -25 -11 -60
-32 -78 -47 -36 -29 -35 -29 -143 1 -33 9 -56 10 -86 2 -28 -7 -46 -7 -59 0
-58 32 -163 24 -226 -18 -47 -31 -98 -100 -98 -132 0 -23 2 -22 50 18 40 34
59 43 99 47 81 7 93 -4 35 -34 -59 -31 -124 -95 -124 -124 0 -25 5 -25 33 1
12 11 35 28 52 36 32 17 119 28 111 14 -8 -13 31 -59 64 -76 17 -9 69 -17 126
-20 54 -2 101 -8 106 -13 6 -6 25 -6 46 -1 52 12 52 12 39 -22 -11 -28 -10
-33 12 -50 24 -20 85 -25 109 -10 10 6 5 12 -20 20 -31 11 -32 13 -14 26 11 8
43 14 82 14 64 0 65 0 141 61 109 88 111 89 193 94 51 4 82 11 100 24 26 19
70 125 63 152 -2 8 8 1 24 -16 35 -39 64 -54 89 -48 27 6 44 -8 58 -51 17 -49
7 -88 -36 -132 l-32 -33 32 0 c38 0 105 56 119 98 19 58 -4 170 -44 214 -23
25 -29 148 -8 148 8 0 15 -6 15 -12 0 -16 55 -48 83 -48 16 0 18 -3 9 -12 -24
-24 -9 -118 19 -118 6 0 8 4 4 10 -13 20 23 77 55 89 45 15 57 14 79 -8 46
-46 118 -64 162 -41 11 6 28 30 39 53 16 33 26 43 47 45 29 2 64 -30 83 -76
14 -33 42 -24 63 21 9 20 22 37 27 37 17 0 44 64 41 98 -3 56 17 94 70 131 27
18 76 62 109 97 32 35 62 64 66 64 3 0 15 11 26 25 11 14 26 25 34 25 16 0 67
-96 83 -158 6 -23 16 -60 21 -82 13 -48 23 -50 41 -8 19 45 16 166 -6 271
l-18 88 25 26 c25 25 26 25 52 7 48 -31 131 -149 196 -279 38 -75 54 -89 65
-54 24 73 -6 207 -81 368 -24 52 -44 97 -44 100 0 3 20 19 45 35 45 28 46 28
66 10 11 -10 43 -49 72 -86 34 -44 55 -64 61 -58 15 15 -9 96 -49 163 l-34 58
39 35 c64 58 73 137 24 209 -23 32 -17 48 51 150 36 53 65 101 65 106 0 28
-69 -3 -151 -67 l-57 -43 -6 31 c-14 71 -7 102 39 170 42 63 55 98 38 98 -5 0
-30 -11 -57 -25 -27 -14 -51 -23 -53 -21 -2 2 -6 19 -9 38 -5 28 1 44 33 91
21 31 42 56 46 57 22 1 103 -71 147 -130 96 -128 238 -239 375 -292 l90 -36
27 -128 c51 -249 43 -295 -98 -530 -59 -98 -120 -210 -135 -248 -16 -38 -46
-87 -67 -110 -20 -23 -48 -57 -61 -76 -13 -20 -44 -50 -70 -68 -25 -18 -65
-47 -88 -64 -43 -32 -61 -36 -221 -58 -47 -6 -90 -19 -117 -35 -24 -14 -56
-25 -72 -25 -27 0 -108 -37 -166 -75 -62 -40 -86 -148 -47 -212 22 -36 45 -45
35 -13 -17 55 32 129 98 145 32 8 32 8 12 -38 -28 -67 -11 -77 41 -26 l32 31
44 -31 c24 -17 58 -34 76 -37 33 -7 33 -7 14 -28 -27 -29 -37 -81 -22 -117 17
-40 26 -37 36 13 7 33 16 45 46 60 43 23 94 17 103 -11 7 -23 67 -51 111 -51
26 0 45 9 78 40 24 22 51 40 61 40 10 0 33 11 51 25 23 17 44 25 71 24 101 -3
122 -25 79 -82 -58 -76 -8 -137 91 -111 26 7 21 24 -7 24 -24 0 -36 20 -19 31
8 5 38 9 68 9 48 0 57 3 87 36 19 19 34 40 34 45 0 5 11 9 24 9 17 0 47 22 94
68 56 54 72 75 77 107 16 90 76 280 94 298 12 12 90 -27 139 -69 49 -41 62
-43 62 -6 0 53 -20 98 -75 166 -30 38 -55 74 -55 78 0 14 22 52 34 61 26 18
169 -27 242 -77 50 -34 64 -33 64 3 0 44 -57 118 -142 185 -42 34 -79 69 -83
79 -4 10 1 29 10 44 14 21 22 24 51 20 19 -3 60 -17 91 -32 31 -14 58 -23 60
-21 3 3 2 14 -2 26 -6 18 -36 45 -124 110 -19 14 -20 19 -10 60 12 52 5 135
-13 158 -19 23 -2 12 112 -72 86 -64 163 -111 308 -187 29 -16 92 -51 140 -78
91 -52 111 -62 382 -184 232 -104 560 -203 755 -227 50 -6 97 -13 105 -15 13
-4 426 -61 580 -80 30 -4 215 -8 410 -10 195 -2 381 -7 412 -10 127 -14 513
29 763 85 453 100 482 110 681 222 161 91 220 135 307 229 105 114 132 172
129 287 -1 62 -8 91 -47 189 -39 97 -58 129 -121 206 -101 121 -188 177 -323
208 -53 12 -100 29 -105 37 -7 12 -10 12 -17 1 -8 -11 -12 -10 -24 5 -8 11
-15 14 -15 8 0 -19 -38 -14 -43 6 -4 16 -5 16 -6 0 -1 -25 -26 -22 -39 5 l-11
22 0 -24 c-1 -28 -16 -19 -24 14 -5 19 -5 19 -12 -2 -10 -30 -19 -29 -32 5
l-11 27 -1 -28 c-1 -34 -22 -32 -32 4 -7 23 -7 23 -8 2 -1 -33 -16 -28 -29 10
l-10 32 -1 -32 c-1 -22 -6 -33 -15 -33 -9 0 -16 13 -19 33 l-4 32 -1 -32 c-3
-50 -30 -43 -39 10 l-8 42 -5 -38 c-6 -48 -23 -48 -31 0 l-6 38 -2 -38 c-2
-53 -24 -43 -32 14 l-5 44 -5 -38 c-5 -48 -23 -53 -27 -7 -3 33 -21 68 -19 39
1 -39 -4 -69 -13 -69 -5 0 -10 21 -11 48 l-1 47 -10 -42 c-13 -58 -38 -48 -39
16 l-1 46 -10 -43 c-13 -58 -33 -49 -31 14 l2 49 -11 -47 c-14 -63 -28 -61
-29 5 -1 55 -4 54 -14 -5 -9 -55 -25 -46 -26 15 l-1 52 -12 -44 c-17 -64 -34
-63 -30 1 3 51 3 52 -7 18 -20 -65 -23 -65 -29 -5 -4 33 -7 49 -8 35 -6 -80
-31 -94 -33 -17 l-1 52 -10 -48 c-13 -60 -33 -57 -34 6 0 47 -14 81 -14 36 0
-34 -11 -69 -21 -69 -5 0 -10 24 -10 53 -1 28 -3 43 -6 32 -2 -11 -6 -30 -9
-43 -2 -12 -9 -22 -15 -22 -6 0 -7 19 -3 52 5 37 4 49 -5 44 -6 -4 -11 -18
-11 -31 0 -30 -10 -55 -22 -55 -5 0 -8 22 -7 50 2 27 0 53 -4 57 -4 3 -7 -5
-7 -18 0 -34 -11 -69 -21 -69 -5 0 -9 24 -10 53 l-1 52 -9 -40 c-16 -68 -31
-68 -25 0 6 60 -5 55 -18 -8 -11 -50 -28 -31 -21 24 9 62 -9 60 -19 -1 -9 -56
-26 -41 -27 23 l-1 52 -11 -42 c-13 -58 -25 -54 -29 10 l-4 52 -8 -43 c-13
-63 -30 -66 -22 -4 8 61 -8 71 -18 12 -9 -55 -26 -50 -27 8 -1 48 -3 48 -13 0
-10 -44 -29 -34 -23 11 2 21 1 45 -4 52 -6 10 -9 6 -9 -13 0 -31 -9 -58 -20
-58 -4 0 -6 24 -4 53 l4 52 -13 -42 c-18 -62 -27 -63 -28 -2 l-1 54 -11 -41
c-17 -58 -38 -47 -30 14 6 52 -5 52 -16 0 -10 -48 -26 -35 -24 20 l2 47 -11
-37 c-16 -53 -31 -47 -22 8 5 34 4 45 -5 40 -6 -4 -11 -16 -11 -26 0 -27 -11
-51 -20 -45 -4 3 -6 24 -4 48 4 42 0 38 -22 -18 -6 -15 -10 -6 -14 35 -4 30
-7 45 -8 33 -3 -30 -12 -53 -23 -53 -5 0 -7 19 -3 43 4 31 3 38 -5 27 -6 -8
-11 -23 -11 -32 0 -10 -4 -18 -10 -18 -5 0 -11 21 -11 48 -1 39 -2 42 -8 17
-8 -40 -25 -34 -32 12 -3 21 -7 28 -8 16 0 -13 -5 -23 -11 -23 -9 0 -14 26
-11 60 1 11 -1 11 -9 -3 -10 -16 -14 -14 -47 20 -35 37 -112 179 -140 258 -33
93 -56 273 -68 525 -4 96 -2 138 10 180 8 30 26 104 40 163 18 78 36 127 66
178 63 108 116 174 167 208 26 17 64 42 84 56 70 47 233 101 293 97 76 -5 319
46 477 99 72 24 228 108 228 122 0 5 -12 7 -27 4 -97 -20 -304 -49 -310 -43
-4 3 8 21 25 39 18 18 32 39 32 46 0 28 105 90 205 120 79 24 144 53 149 67 7
18 1 21 -71 29 -35 4 -63 9 -63 12 0 3 20 28 45 55 25 28 45 53 45 57 0 5 24
21 53 36 60 32 127 83 127 95 0 5 -21 10 -47 12 -40 2 -49 7 -51 24 -2 11 18
104 43 206 65 268 77 368 46 368 -5 0 -44 -63 -85 -140 -167 -308 -337 -516
-511 -626 -117 -74 -200 -123 -203 -120 -1 2 5 22 13 46 8 23 15 46 15 51 0
20 -29 6 -92 -44 -37 -28 -102 -78 -145 -109 -88 -64 -138 -109 -171 -152
l-23 -30 -28 35 c-24 29 -111 89 -111 76 0 -2 18 -17 41 -32 54 -38 87 -84 68
-96 -26 -16 -45 -9 -120 40 -41 27 -100 57 -132 66 -65 19 -90 14 -30 -5 59
-19 124 -56 168 -93 l39 -34 -39 -20 -38 -20 -65 29 c-91 41 -203 68 -284 68
-93 0 -78 -16 19 -22 79 -5 179 -37 251 -80 l33 -20 -33 -23 c-26 -18 -39 -21
-62 -14 -83 24 -225 41 -291 35 -70 -7 -205 -44 -205 -57 0 -3 26 0 58 8 88
21 213 19 307 -7 44 -12 84 -26 88 -30 5 -4 -5 -17 -21 -29 -26 -18 -44 -21
-125 -21 -121 0 -210 -20 -314 -72 -91 -44 -114 -71 -30 -34 99 44 164 57 275
57 58 -1 107 -3 109 -5 3 -2 -6 -20 -19 -40 -15 -23 -33 -37 -53 -41 -182 -37
-297 -85 -380 -161 -55 -49 -49 -48 38 9 84 55 141 78 237 92 47 7 86 12 88
10 2 -1 -5 -18 -14 -37 -12 -26 -31 -42 -77 -64 -97 -46 -169 -96 -215 -151
-23 -28 -42 -53 -42 -57 0 -3 27 21 61 54 54 54 137 104 206 125 l23 6 -21
-58 c-18 -48 -30 -64 -71 -92 -56 -39 -125 -112 -151 -162 l-18 -34 23 30 c39
50 115 123 147 140 29 14 31 14 31 -2 0 -10 -6 -39 -13 -64 -10 -37 -22 -55
-64 -87 -49 -39 -103 -100 -103 -117 0 -4 18 11 39 33 37 38 98 78 106 70 2
-2 1 -22 -2 -46 -4 -33 -12 -46 -37 -61 -32 -20 -95 -81 -83 -81 3 0 23 11 43
25 51 34 57 32 49 -17 -6 -31 -18 -53 -47 -81 -47 -45 -44 -62 4 -22 l33 28 3
-37 c3 -30 -2 -42 -28 -67 -32 -33 -34 -55 -2 -26 10 10 24 17 30 17 19 0 14
-50 -8 -77 -27 -35 -25 -47 5 -27 l25 16 0 -43 c-1 -24 -7 -55 -15 -69 -20
-34 -20 -60 0 -34 13 17 15 17 16 2 4 -45 2 -85 -6 -102 -6 -14 -5 -17 3 -12
15 9 26 -36 18 -74 -3 -17 -1 -30 4 -30 13 0 32 -77 25 -100 -4 -14 -2 -20 9
-20 16 0 33 -61 21 -79 -3 -6 0 -11 8 -11 16 0 30 -51 20 -77 -4 -10 -3 -14 5
-9 16 10 37 -33 23 -47 -17 -17 -13 -31 5 -16 13 10 17 10 25 -2 32 -51 -6
-79 -107 -79 -43 0 -97 -5 -119 -11 -74 -21 -155 -16 -205 11 -93 52 -102 140
-26 258 42 66 64 82 139 106 9 3 17 9 17 14 0 11 -79 0 -243 -32 -142 -29
-192 -26 -252 15 -35 24 -65 84 -65 129 0 49 21 98 68 161 41 56 58 70 132
106 83 42 84 43 45 42 -22 0 -67 -5 -100 -10 -33 -5 -107 -13 -165 -18 -58 -5
-136 -12 -175 -15 l-70 -6 -37 48 c-59 78 -64 94 -49 165 19 94 94 190 176
227 34 15 76 31 93 35 31 6 45 25 19 25 -31 0 -185 -22 -212 -30 -54 -16 -129
-20 -205 -9 -74 10 -76 12 -97 50 -12 21 -17 39 -12 39 17 0 -1 20 -19 21 -9
1 -39 25 -65 54 l-48 53 15 59 c10 37 25 66 41 81 14 12 23 26 20 32 -13 21
157 100 215 100 11 0 20 5 20 11 0 18 -179 3 -243 -20 -28 -11 -68 -19 -88
-20 -20 0 -56 -7 -80 -16 -63 -21 -70 -20 -114 26 -22 22 -80 67 -128 101 -49
33 -91 67 -94 74 -8 21 25 104 53 134 13 14 48 39 79 55 87 47 70 53 -63 20
l-52 -13 24 46 c70 134 111 285 127 465 5 67 20 178 31 247 21 123 28 307 19
465 -6 91 23 291 54 382 50 144 156 301 303 450 222 224 685 501 1037 620 290
98 276 96 643 99 293 2 356 -1 402 -20 8 -3 21 -2 28 2 28 18 -15 71 -229 285
-120 120 -235 238 -254 261 -51 62 -75 122 -75 189 0 141 102 238 350 330 203
76 398 94 670 62 69 -7 170 -15 225 -17 95 -3 100 -2 103 18 2 17 -11 31 -60
64 -35 24 -89 62 -120 86 -82 62 -182 122 -373 224 -55 29 -131 70 -168 92
-38 21 -71 38 -73 38 -11 0 -132 87 -172 124 -57 52 -134 150 -162 206 -96
190 -127 463 -71 641 33 104 117 211 226 285 19 12 80 46 137 74 57 29 110 56
118 61 8 5 24 13 35 18 11 5 31 20 44 34 l23 25 -30 16 c-37 19 -138 19 -287
1z m-8096 -1804 c32 -26 36 -51 8 -51 -18 0 -67 48 -67 65 0 23 21 17 59 -14z
m1824 -2153 c3 -7 16 -40 30 -74 l24 -61 -22 -21 c-21 -20 -45 -82 -45 -116 0
-9 -3 -16 -8 -16 -4 0 -8 42 -10 93 -1 50 -5 104 -8 120 -11 56 21 117 39 75z
m-2108 -989 c14 -18 22 -35 18 -39 -52 -44 -96 -71 -107 -67 -8 3 -43 2 -77
-3 -75 -11 -80 -6 -77 65 l3 50 45 12 c25 6 73 12 107 12 57 1 63 -1 88 -30z
m-495 -1838 c0 -12 -20 -25 -27 -18 -7 7 6 27 18 27 5 0 9 -4 9 -9z m8380
-1168 c0 -4 -12 -20 -27 -36 -28 -30 -20 -29 29 5 l26 18 35 -47 c20 -27 58
-70 86 -98 28 -27 51 -53 51 -57 0 -4 -10 -8 -22 -8 -13 0 -43 -10 -68 -21
-25 -11 -61 -20 -80 -21 -82 -1 -170 63 -170 123 0 41 50 127 80 138 31 11 60
13 60 4z m283 -275 c24 -18 57 -43 73 -55 l29 -22 -57 0 c-64 -1 -103 10 -111
33 -6 14 10 76 19 76 2 0 23 -15 47 -32z m-4585 -20 c27 -39 63 -119 129 -283
19 -49 22 -70 17 -114 -6 -50 -14 -62 -104 -170 -54 -64 -120 -140 -148 -170
l-49 -55 -17 50 c-9 27 -50 103 -91 168 l-74 119 16 31 c9 17 25 44 36 59 l20
29 59 -59 60 -58 -17 40 c-9 22 -27 59 -41 82 -13 23 -24 46 -24 51 0 9 74
138 87 152 2 3 9 -3 14 -13 17 -29 28 -19 17 16 -9 31 -7 40 32 100 23 37 43
67 45 67 2 0 17 -19 33 -42z m-3758 15 c-8 -3 -22 -11 -30 -18 -8 -6 -34 -19
-57 -28 l-42 -17 11 25 c6 15 25 29 42 34 33 10 101 13 76 4z m3427 -655 c30
-29 76 -81 101 -116 l45 -64 -59 -59 c-32 -32 -61 -59 -64 -59 -11 0 -130 254
-130 277 0 32 21 73 37 73 8 0 39 -24 70 -52z m-153 -308 c24 -30 45 -60 49
-66 4 -7 -15 -27 -47 -49 -77 -53 -96 -46 -119 42 -21 84 -21 107 -1 138 16
24 17 25 46 7 17 -9 49 -42 72 -72z m-230 -134 c14 -22 13 -24 -26 -46 -22
-12 -43 -18 -48 -14 -4 5 1 28 11 51 20 47 36 49 63 9z m1484 -756 c-8 -12
-24 -20 -40 -20 -15 0 -38 -4 -52 -10 -24 -9 -25 -8 -13 11 6 11 21 22 32 24
11 2 29 6 40 8 43 10 46 8 33 -13z"/>
</g>
</svg>
